<svg width="35" height="36" viewBox="0 0 35 36" fill="none" xmlns="http://www.w3.org/2000/svg">
<g id="Group 1739327730">
<ellipse id="Ellipse 6307" cx="17.5" cy="17.9858" rx="17.5" ry="17.7397" fill="#CCDDFF"/>
<path id="Vector" d="M22.75 16.9478C22.75 15.4675 22.2409 14.2124 21.2227 13.1827C20.2045 12.1529 18.9636 11.638 17.5 11.638C18.9636 11.638 20.2045 11.1231 21.2227 10.0933C22.2409 9.0635 22.75 7.80845 22.75 6.32812C22.75 7.80845 23.2591 9.0635 24.2773 10.0933C25.2955 11.1231 26.5364 11.638 28 11.638C26.5364 11.638 25.2955 12.1529 24.2773 13.1827C23.2591 14.2124 22.75 15.4675 22.75 16.9478ZM8.90909 26.6021C8.38409 26.6021 7.93466 26.413 7.5608 26.0349C7.18693 25.6568 7 25.2022 7 24.6712C7 24.1403 7.18693 23.6857 7.5608 23.3076C7.93466 22.9295 8.38409 22.7404 8.90909 22.7404H9.15966C9.23125 22.7404 9.30682 22.7565 9.38636 22.7887L13.7295 18.396C13.6977 18.3155 13.6818 18.2391 13.6818 18.1667V17.9133C13.6818 17.3823 13.8688 16.9277 14.2426 16.5496C14.6165 16.1715 15.0659 15.9824 15.5909 15.9824C16.1159 15.9824 16.5653 16.1715 16.9392 16.5496C17.3131 16.9277 17.5 17.3823 17.5 17.9133C17.5 17.9454 17.4841 18.1063 17.4523 18.396L19.8864 20.8578C19.9659 20.8256 20.0415 20.8095 20.1131 20.8095H20.6142C20.6858 20.8095 20.7614 20.8256 20.8409 20.8578L24.2295 17.4305C24.1977 17.3501 24.1818 17.2737 24.1818 17.2013V16.9478C24.1818 16.4168 24.3687 15.9623 24.7426 15.5842C25.1165 15.206 25.5659 15.017 26.0909 15.017C26.6159 15.017 27.0653 15.206 27.4392 15.5842C27.8131 15.9623 28 16.4168 28 16.9478C28 17.4788 27.8131 17.9334 27.4392 18.3115C27.0653 18.6896 26.6159 18.8787 26.0909 18.8787H25.8403C25.7687 18.8787 25.6932 18.8626 25.6136 18.8304L22.225 22.2577C22.2568 22.3381 22.2727 22.4146 22.2727 22.487V22.7404C22.2727 23.2714 22.0858 23.7259 21.7119 24.1041C21.3381 24.4822 20.8886 24.6712 20.3636 24.6712C19.8386 24.6712 19.3892 24.4822 19.0153 24.1041C18.6415 23.7259 18.4545 23.2714 18.4545 22.7404V22.487C18.4545 22.4146 18.4705 22.3381 18.5023 22.2577L16.0682 19.7958C15.9886 19.828 15.9131 19.8441 15.8415 19.8441H15.5909C15.5591 19.8441 15.4 19.828 15.1136 19.7958L10.7705 24.1885C10.8023 24.269 10.8182 24.3454 10.8182 24.4178V24.6712C10.8182 25.2022 10.6312 25.6568 10.2574 26.0349C9.88352 26.413 9.43409 26.6021 8.90909 26.6021Z" fill="#4285F4"/>
</g>
</svg>
