<svg xmlns="http://www.w3.org/2000/svg" width="22" height="21" viewBox="0 0 22 21" fill="none">
  <path d="M11 18.375C8.89167 18.375 7.05451 17.7078 5.48854 16.3734C3.92257 15.0391 3.025 13.3729 2.79583 11.375H4.675C4.88889 12.8917 5.59549 14.1458 6.79479 15.1375C7.9941 16.1292 9.39583 16.625 11 16.625C12.7875 16.625 14.3038 16.0307 15.549 14.8422C16.7941 13.6536 17.4167 12.2063 17.4167 10.5C17.4167 8.79375 16.7941 7.34635 15.549 6.15781C14.3038 4.96927 12.7875 4.375 11 4.375C9.94583 4.375 8.96042 4.60833 8.04375 5.075C7.12708 5.54167 6.35556 6.18333 5.72917 7H8.25V8.75H2.75V3.5H4.58333V5.55625C5.3625 4.62292 6.31354 3.90104 7.43646 3.39062C8.55938 2.88021 9.74722 2.625 11 2.625C12.1458 2.625 13.2191 2.83281 14.2198 3.24844C15.2205 3.66406 16.0913 4.22552 16.8323 4.93281C17.5733 5.6401 18.1615 6.47135 18.5969 7.42656C19.0323 8.38177 19.25 9.40625 19.25 10.5C19.25 11.5938 19.0323 12.6182 18.5969 13.5734C18.1615 14.5286 17.5733 15.3599 16.8323 16.0672C16.0913 16.7745 15.2205 17.3359 14.2198 17.7516C13.2191 18.1672 12.1458 18.375 11 18.375ZM13.5667 14.175L10.0833 10.85V6.125H11.9167V10.15L14.85 12.95L13.5667 14.175Z" fill="black"/>
</svg>