<svg xmlns="http://www.w3.org/2000/svg" width="29" height="29" viewBox="0 0 29 29" fill="none">
  <path d="M2.77251 13.5947H7.19983C7.45443 13.5947 7.69861 13.6959 7.87864 13.8759C8.05868 14.0559 8.15982 14.3001 8.15982 14.5547V25.8584C8.15982 26.113 8.05868 26.3572 7.87864 26.5372C7.69861 26.7172 7.45443 26.8184 7.19983 26.8184H2.77249C2.51788 26.8184 2.27371 26.7172 2.09367 26.5372C1.91364 26.3572 1.8125 26.113 1.8125 25.8584V14.5547C1.8125 14.4287 1.83733 14.3038 1.88557 14.1874C1.93382 14.0709 2.00453 13.9651 2.09368 13.8759C2.18282 13.7868 2.28866 13.716 2.40513 13.6678C2.5216 13.6196 2.64644 13.5947 2.77251 13.5947Z" fill="#34A853"/>
  <path d="M26.4385 14.8615C28.3933 10.3781 21.0734 11.2599 19.432 11.7062C17.7905 12.147 17.9818 10.5056 17.9818 10.5056L18.9576 5.16761C19.0523 4.70802 19.0261 4.23173 18.8816 3.78529C18.3947 2.39531 17.0819 2.1772 16.2872 2.18171C16.1074 2.18285 15.9347 2.25192 15.8037 2.37507C15.6727 2.49821 15.593 2.66633 15.5807 2.84571C15.5498 3.29854 15.5516 3.75301 15.5861 4.20559C15.616 4.6303 15.5393 5.05575 15.363 5.4433C14.5271 7.30924 12.7781 10.3659 11.943 11.7994C11.6628 12.2629 11.3196 12.6854 10.9233 13.0546C10.4299 13.5417 10.0127 14.1002 9.6856 14.7115C9.61749 14.838 9.58238 14.9796 9.58352 15.1233V25.2376C9.58294 25.4551 9.66448 25.6648 9.81183 25.8248C9.95918 25.9847 10.1615 26.0832 10.3783 26.1005C12.8768 26.3065 20.5491 26.8831 22.9645 26.4098C25.8701 25.8414 25.5514 22.6223 25.5514 22.6223C26.1489 22.174 26.5709 21.531 26.7445 20.8045C26.9182 20.078 26.8325 19.3136 26.5022 18.6436C28.0799 17.2572 26.4385 14.8615 26.4385 14.8615Z" fill="#34A853"/>
</svg>