<svg xmlns="http://www.w3.org/2000/svg" width="29" height="29" viewBox="0 0 29 29" fill="none">
  <g opacity="0.4">
    <path d="M2.77251 15.4053H7.19983C7.45443 15.4053 7.69861 15.3041 7.87864 15.1241C8.05868 14.9441 8.15982 14.6999 8.15982 14.4453V3.14163C8.15982 2.88703 8.05868 2.64285 7.87864 2.46282C7.69861 2.28279 7.45443 2.18164 7.19983 2.18164H2.77249C2.51788 2.18164 2.27371 2.28279 2.09367 2.46282C1.91364 2.64285 1.8125 2.88703 1.8125 3.14163V14.4453C1.8125 14.5713 1.83733 14.6962 1.88557 14.8126C1.93382 14.9291 2.00453 15.0349 2.09368 15.1241C2.18282 15.2132 2.28866 15.284 2.40513 15.3322C2.5216 15.3804 2.64644 15.4053 2.77251 15.4053Z" fill="#EA4335"/>
    <path d="M26.4385 14.1385C28.3933 18.6219 21.0734 17.7401 19.432 17.2938C17.7905 16.853 17.9818 18.4944 17.9818 18.4944L18.9576 23.8324C19.0523 24.292 19.0261 24.7683 18.8816 25.2147C18.3947 26.6047 17.0819 26.8228 16.2872 26.8183C16.1074 26.8171 15.9347 26.7481 15.8037 26.6249C15.6727 26.5018 15.593 26.3337 15.5807 26.1543C15.5498 25.7015 15.5516 25.247 15.5861 24.7944C15.616 24.3697 15.5393 23.9442 15.363 23.5567C14.5271 21.6908 12.7781 18.6341 11.943 17.2006C11.6628 16.7371 11.3196 16.3146 10.9233 15.9454C10.4299 15.4583 10.0127 14.8998 9.6856 14.2885C9.61749 14.162 9.58238 14.0204 9.58352 13.8767V3.76242C9.58294 3.54492 9.66448 3.33522 9.81183 3.17524C9.95918 3.01527 10.1615 2.91681 10.3783 2.89955C12.8768 2.69349 20.5491 2.11689 22.9645 2.59024C25.8701 3.15863 25.5514 6.37769 25.5514 6.37769C26.1489 6.826 26.5709 7.469 26.7445 8.19551C26.9182 8.92201 26.8325 9.68636 26.5022 10.3564C28.0799 11.7428 26.4385 14.1385 26.4385 14.1385Z" fill="#EA4335"/>
  </g>
</svg>